<svg xmlns="http://www.w3.org/2000/svg" viewBox="0 0 540 120" width="540" height="120">
  <defs>
    <linearGradient id="ringGradL" x1="0%" y1="0%" x2="100%" y2="100%">
      <stop offset="0%" stop-color="#3D8FFF"/>
      <stop offset="40%" stop-color="#5B3FFF"/>
      <stop offset="100%" stop-color="#7B3FFF"/>
    </linearGradient>
    <radialGradient id="lensFillL" cx="50%" cy="45%" r="60%">
      <stop offset="0%" stop-color="#0A1235"/>
      <stop offset="60%" stop-color="#040818"/>
      <stop offset="100%" stop-color="#01030A"/>
    </radialGradient>
    <linearGradient id="handleMetalL" x1="0%" y1="0%" x2="100%" y2="100%">
      <stop offset="0%" stop-color="#3D8FFF"/>
      <stop offset="100%" stop-color="#7B3FFF"/>
    </linearGradient>
    <linearGradient id="probeBeamL" x1="0%" y1="0%" x2="0%" y2="100%">
      <stop offset="0%" stop-color="#7DF9FF" stop-opacity="0.9"/>
      <stop offset="100%" stop-color="#7DF9FF" stop-opacity="0"/>
    </linearGradient>
    <pattern id="diePatternL" x="0" y="0" width="4" height="4" patternUnits="userSpaceOnUse">
      <path d="M 0 2 L 4 2 M 2 0 L 2 4" stroke="#5B7FFF" stroke-width="0.15" opacity="0.4"/>
    </pattern>
    <clipPath id="lensClipL">
      <circle cx="50" cy="50" r="30"/>
    </clipPath>
    <filter id="lMicro" x="-50%" y="-50%" width="200%" height="200%">
      <feGaussianBlur stdDeviation="0.6" result="b"/>
      <feMerge><feMergeNode in="b"/><feMergeNode in="SourceGraphic"/></feMerge>
    </filter>
  </defs>

  <g transform="translate(8, 10)">
    <g stroke="#5B3FFF" stroke-width="0.8" fill="none" opacity="0.6">
      <path d="M 4 12 L 4 4 L 12 4"/>
      <path d="M 88 4 L 96 4 L 96 12"/>
      <path d="M 4 88 L 4 96 L 12 96"/>
      <path d="M 88 96 L 96 96 L 96 88"/>
    </g>
    <text x="10" y="10" font-family="'JetBrains Mono', monospace" font-size="3" fill="#5B3FFF" opacity="0.7" letter-spacing="0.4">SCAN-01</text>
    <text x="78" y="100" font-family="'JetBrains Mono', monospace" font-size="3" fill="#5B3FFF" opacity="0.7" letter-spacing="0.4">CH:A1</text>

    <g fill="none">
      <circle cx="50" cy="50" r="36.5" stroke="#5B3FFF" stroke-width="0.3" stroke-dasharray="1 2" opacity="0.5"/>
      <circle cx="50" cy="50" r="32" stroke="url(#ringGradL)" stroke-width="2.2"/>
      <circle cx="50" cy="50" r="28.5" stroke="#5B3FFF" stroke-width="0.4" opacity="0.5"/>
    </g>

    <g stroke="#5B3FFF" opacity="0.85">
      <line x1="50" y1="14" x2="50" y2="19" stroke-width="0.8"/>
      <line x1="50" y1="81" x2="50" y2="86" stroke-width="0.8"/>
      <line x1="14" y1="50" x2="19" y2="50" stroke-width="0.8"/>
      <line x1="81" y1="50" x2="86" y2="50" stroke-width="0.8"/>
    </g>

    <!-- 鏡片內部（保持深色） -->
    <g clip-path="url(#lensClipL)">
      <circle cx="50" cy="50" r="30" fill="url(#lensFillL)"/>
      <rect x="20" y="20" width="60" height="60" fill="url(#diePatternL)"/>

      <g fill="none" stroke="#5B7FFF">
        <rect x="38" y="38" width="24" height="24" stroke-width="0.5" opacity="0.7"/>
        <rect x="42" y="42" width="16" height="16" stroke-width="0.3" opacity="0.5"/>
        <rect x="46" y="46" width="8" height="8" stroke-width="0.3" opacity="0.6"/>
      </g>

      <g fill="#7DF9FF" filter="url(#lMicro)">
        <rect x="40" y="36.5" width="1.5" height="1.5" opacity="0.85"/>
        <rect x="44" y="36.5" width="1.5" height="1.5" opacity="0.7"/>
        <rect x="48" y="36.5" width="1.5" height="1.5" opacity="0.85"/>
        <rect x="52" y="36.5" width="1.5" height="1.5" opacity="0.7"/>
        <rect x="56" y="36.5" width="1.5" height="1.5" opacity="0.85"/>
        <rect x="40" y="62" width="1.5" height="1.5" opacity="0.7"/>
        <rect x="44" y="62" width="1.5" height="1.5" opacity="0.85"/>
        <rect x="48" y="62" width="1.5" height="1.5" opacity="0.7"/>
        <rect x="52" y="62" width="1.5" height="1.5" opacity="0.85"/>
        <rect x="56" y="62" width="1.5" height="1.5" opacity="0.7"/>
        <rect x="36.5" y="40" width="1.5" height="1.5" opacity="0.85"/>
        <rect x="36.5" y="44" width="1.5" height="1.5" opacity="0.7"/>
        <rect x="36.5" y="48" width="1.5" height="1.5" opacity="0.85"/>
        <rect x="36.5" y="52" width="1.5" height="1.5" opacity="0.7"/>
        <rect x="36.5" y="56" width="1.5" height="1.5" opacity="0.85"/>
        <rect x="62" y="40" width="1.5" height="1.5" opacity="0.7"/>
        <rect x="62" y="44" width="1.5" height="1.5" opacity="0.85"/>
        <rect x="62" y="48" width="1.5" height="1.5" opacity="0.7"/>
        <rect x="62" y="52" width="1.5" height="1.5" opacity="0.85"/>
        <rect x="62" y="56" width="1.5" height="1.5" opacity="0.7"/>
      </g>

      <g fill="#7B3FFF">
        <rect x="38" y="38" width="2" height="2" opacity="0.85"/>
        <rect x="60" y="38" width="2" height="2" opacity="0.85"/>
        <rect x="38" y="60" width="2" height="2" opacity="0.85"/>
        <rect x="60" y="60" width="2" height="2" opacity="0.85"/>
      </g>

      <g stroke="#7DF9FF" stroke-width="0.4" opacity="0.85">
        <line x1="44" y1="50" x2="48" y2="50"/>
        <line x1="52" y1="50" x2="56" y2="50"/>
        <line x1="50" y1="44" x2="50" y2="48"/>
        <line x1="50" y1="52" x2="50" y2="56"/>
      </g>

      <circle cx="50" cy="50" r="2.5" fill="#7DF9FF"/>
      <circle cx="50" cy="50" r="1.4" fill="#FFFFFF"/>

      <line x1="50" y1="22" x2="50" y2="42" stroke="#7DF9FF" stroke-width="0.6"/>
      <rect x="49.7" y="22" width="0.6" height="20" fill="url(#probeBeamL)"/>
      <path d="M 47 22 L 53 22 L 50 26 Z" fill="#7DF9FF"/>
    </g>

    <path d="M 26 38 A 28 28 0 0 1 38 26" fill="none" stroke="#FFFFFF" stroke-width="0.6" opacity="0.4" stroke-linecap="round"/>

    <g>
      <line x1="74" y1="74" x2="93" y2="93" stroke="#0A1030" stroke-width="6" stroke-linecap="round"/>
      <line x1="74" y1="74" x2="93" y2="93" stroke="url(#handleMetalL)" stroke-width="4.2" stroke-linecap="round"/>
      <line x1="74.5" y1="74.5" x2="84" y2="84" stroke="#FFFFFF" stroke-width="0.7" stroke-linecap="round" opacity="0.55"/>
      <circle cx="93" cy="93" r="2.5" fill="url(#handleMetalL)"/>
    </g>
  </g>

  <!-- 文字（深色字 + 漸層強調 Patent） -->
  <g transform="translate(124, 0)">
    <g stroke="#5B3FFF" opacity="0.5">
      <line x1="0" y1="20" x2="80" y2="20" stroke-width="0.4"/>
      <line x1="0" y1="20" x2="0" y2="24" stroke-width="0.6"/>
      <line x1="40" y1="20" x2="40" y2="23" stroke-width="0.4"/>
      <line x1="80" y1="20" x2="80" y2="24" stroke-width="0.6"/>
    </g>

    <text x="0" y="62" font-family="'Space Grotesk', 'Helvetica Neue', sans-serif" font-size="36" font-weight="700" letter-spacing="-1.5" fill="#01030A">
      AI<tspan fill="url(#ringGradL)">Patent</tspan>Insight
    </text>

    <g transform="translate(2, 88)">
      <line x1="0" y1="0" x2="6" y2="0" stroke="#5B3FFF" stroke-width="1"/>
      <text x="12" y="3" font-family="'JetBrains Mono', monospace" font-size="10" font-weight="500" letter-spacing="3.5" fill="#5B3FFF">
        INTELLIGENCE · DISCOVERY · EDGE
      </text>
    </g>

    <g transform="translate(2, 104)" font-family="'JetBrains Mono', monospace" font-size="6" letter-spacing="1.2">
      <circle cx="0" cy="-2" r="1" fill="#5B3FFF"/>
      <text x="6" y="0" fill="#5B7FFF" opacity="0.8">[SYSTEM ONLINE]</text>
      <text x="86" y="0" fill="#5B7FFF" opacity="0.5">·</text>
      <text x="92" y="0" fill="#5B7FFF" opacity="0.7">PATENT INTEL ENGINE</text>
    </g>
  </g>
</svg>
